<?xml version="1.0"?>
<svg width="2448" height="1213" xmlns="http://www.w3.org/2000/svg" xmlns:svg="http://www.w3.org/2000/svg" preserveAspectRatio="xMidYMid meet" version="1.0">
 <g class="layer">
  <title>Layer 1</title>
  <g fill="#000000" id="svg_1" transform="matrix(0.1 0 0 -0.1 0 0)">
   <path d="m15270,-1300c-589,-113 -1031,-552 -1167,-1155c-26,-116 -25,-434 1,-560c42,-201 134,-410 251,-572c35,-48 306,-389 602,-758l538,-670l45,0l44,0l558,695c307,382 582,731 612,775c104,155 183,345 222,530c26,128 26,432 0,560c-41,197 -137,415 -253,577c-76,106 -225,253 -338,333c-170,120 -375,207 -584,246c-140,25 -394,25 -531,-1zm451,-286c486,-82 858,-437 960,-919c24,-114 26,-328 3,-445c-31,-168 -105,-335 -205,-470c-115,-155 -930,-1165 -939,-1165c-9,0 -827,1014 -939,1165c-150,202 -221,423 -221,689c0,154 19,263 70,402c185,511 736,833 1271,743z" fill="#3f3f3f" id="svg_2" stroke="#4f4d4d"/>
   <path d="m15445,-2230c-244,-53 -415,-259 -415,-500c0,-151 52,-271 160,-374c74,-70 145,-108 242,-131c163,-38 328,9 458,131c327,309 124,856 -325,879c-44,2 -98,0 -120,-5z" fill="#3f3f3f" id="svg_3" stroke="#4f4d4d"/>
   <path d="m13625,-4796c-192,-35 -351,-63 -352,-64c-2,0 -3,-103 -3,-230l0,-230l-165,0l-165,0l0,-120l0,-120l165,0l165,0l0,-817c0,-450 5,-872 10,-937c13,-160 41,-272 97,-386c38,-80 59,-108 132,-180c68,-68 104,-94 171,-127c157,-77 333,-109 555,-100c141,6 213,18 344,57l71,21l0,135c0,126 -1,136 -17,129c-76,-32 -156,-48 -253,-49c-224,-2 -305,60 -346,266c-15,73 -18,198 -21,1036l-4,952l305,0l306,0l0,120l0,120l-305,0l-305,0l0,295c0,275 -1,295 -17,294c-10,-1 -175,-30 -368,-65z" fill="#3f3f3f" id="svg_4" stroke="#4f4d4d"/>
   <path d="m3660,-5280c-140,-30 -264,-87 -390,-180c-77,-57 -236,-218 -303,-308l-47,-64l0,256l0,256l-550,0l-550,0l0,-114l0,-115l58,-6c102,-10 214,-34 246,-53c42,-24 63,-71 75,-172c15,-115 15,-1695 0,-1810c-12,-101 -33,-148 -75,-172c-32,-19 -144,-43 -246,-53l-58,-6l0,-115l0,-114l720,0l720,0l0,114l0,114l-67,7c-79,8 -166,30 -199,51c-32,22 -53,82 -64,187c-5,51 -10,397 -10,769l0,677l59,79c118,156 249,258 391,305c258,86 422,12 486,-221c18,-62 19,-120 22,-797c3,-724 -2,-895 -31,-953c-26,-55 -93,-82 -244,-97l-63,-7l0,-114l0,-114l690,0l690,0l0,114l0,115l-57,6c-153,17 -215,43 -239,100c-28,67 -34,226 -34,899l0,679l40,54c191,252 371,364 590,366c85,1 100,-1 148,-26c93,-49 151,-158 172,-327c12,-100 13,-1344 0,-1487c-12,-131 -26,-179 -60,-205c-31,-23 -112,-44 -202,-53l-68,-7l0,-114l0,-114l720,0l720,0l0,115c0,63 -3,115 -7,115c-42,1 -199,24 -239,35c-71,20 -101,47 -121,108c-15,47 -18,138 -23,927c-7,831 -8,880 -27,965c-80,353 -306,525 -692,525c-203,0 -396,-67 -596,-208c-97,-68 -249,-205 -320,-290c-33,-39 -62,-71 -65,-71c-3,-1 -13,32 -22,72c-28,116 -86,224 -164,306c-122,129 -293,192 -523,190c-62,0 -141,-8 -191,-19z" fill="#3f3f3f" id="svg_5" stroke="#4f4d4d"/>
   <path d="m7697,-5275c-210,-26 -394,-74 -604,-157l-103,-41l0,-278l0,-279l205,0l205,0l0,53c0,77 18,215 36,269c27,82 129,157 265,194c89,24 284,25 359,2c200,-62 250,-199 250,-685l0,-223l-178,0c-496,0 -793,-62 -1012,-210c-238,-161 -360,-388 -361,-670c-1,-190 30,-307 118,-444c234,-364 739,-473 1178,-253c83,41 219,135 295,204c35,32 65,53 67,48c11,-33 92,-141 145,-193c113,-113 268,-172 448,-172c96,0 236,19 320,44c54,16 56,23 38,151l-13,90l-75,0c-123,0 -170,43 -207,190c-15,63 -18,156 -23,885c-6,788 -7,817 -27,890c-40,141 -85,222 -177,318c-122,128 -300,214 -532,257c-121,23 -472,29 -617,10zm613,-1822l-1,-458l-46,-37c-69,-55 -164,-98 -255,-116c-151,-30 -295,9 -393,105c-96,95 -143,246 -132,418c25,363 259,537 735,544l92,1l0,-457z" fill="#3f3f3f" id="svg_6" stroke="#4f4d4d"/>
   <path d="m11393,-5275c-291,-53 -500,-211 -700,-531c-9,-15 -12,34 -12,234l-1,252l-565,0l-565,0l0,-114l0,-115l58,-6c258,-28 299,-55 322,-210c6,-44 10,-561 10,-1410c0,-849 -4,-1366 -10,-1410c-23,-155 -64,-182 -322,-210l-58,-6l0,-115l0,-114l765,0l765,0l0,114l0,115l-57,6c-113,12 -189,27 -230,45c-92,41 -102,93 -110,589l-6,384l89,-73c152,-123 294,-196 465,-237c116,-28 384,-25 504,6c457,118 768,528 849,1121c46,332 21,699 -64,961c-132,403 -400,664 -745,724c-105,18 -283,18 -382,0zm0,-470c242,-51 377,-280 416,-705c29,-311 -3,-691 -75,-893c-63,-176 -159,-302 -274,-360c-60,-30 -172,-57 -235,-57c-148,0 -354,96 -509,238l-36,32l0,701l0,700l88,91c138,143 265,222 403,253c84,18 139,18 222,0z" fill="#3f3f3f" id="svg_7" stroke="#4f4d4d"/>
   <path d="m20807,-5275c-210,-26 -394,-74 -604,-157l-103,-41l0,-278l0,-279l205,0l205,0l0,53c0,77 18,215 36,269c27,82 129,157 265,194c89,24 284,25 359,2c200,-62 250,-199 250,-685l0,-223l-178,0c-496,0 -793,-62 -1012,-210c-238,-161 -360,-388 -361,-670c-1,-190 30,-307 118,-444c234,-364 739,-473 1178,-253c83,41 219,135 295,204c35,32 65,53 67,48c11,-33 92,-141 145,-193c113,-113 268,-172 448,-172c96,0 236,19 320,44c54,16 56,23 38,151l-13,90l-75,0c-123,0 -170,43 -207,190c-15,63 -18,156 -23,885c-6,788 -7,817 -27,890c-40,141 -85,222 -177,318c-122,128 -300,214 -532,257c-121,23 -472,29 -617,10zm613,-1822l-1,-458l-46,-37c-69,-55 -164,-98 -255,-116c-151,-30 -295,9 -393,105c-96,95 -143,246 -132,418c25,363 259,537 735,544l92,1l0,-457z" fill="#3f3f3f" id="svg_8" stroke="#4f4d4d"/>
   <path d="m14850,-5434l0,-115l58,-6c101,-11 186,-28 229,-46c101,-43 103,-59 103,-1084c0,-1025 -2,-1041 -103,-1084c-43,-18 -128,-35 -229,-46l-58,-6l0,-115l0,-114l765,0l765,0l0,114l0,114l-67,7c-103,10 -196,31 -241,54c-50,25 -68,69 -82,196c-6,54 -10,521 -10,1168l0,1077l-565,0l-565,0l0,-114z" fill="#3f3f3f" id="svg_9" stroke="#4f4d4d"/>
   <path d="m16420,-5435c0,-85 3,-115 13,-115c51,-2 163,-23 209,-40c139,-52 155,-81 894,-1617l419,-873l116,0l115,0l509,1023c675,1355 711,1419 810,1461c41,17 117,34 193,42l62,6l0,114l0,114l-510,0l-510,0l0,-114l0,-114l68,-7c93,-8 203,-33 226,-50c25,-19 19,-75 -19,-170c-44,-114 -678,-1396 -686,-1388c-12,13 -578,1198 -630,1321c-27,62 -53,130 -58,152c-18,81 42,113 252,135l57,6l0,115l0,114l-765,0l-765,0l0,-115z" fill="#3f3f3f" id="svg_10" stroke="#4f4d4d"/>
   <path d="m18158,-9270c-27,-37 -48,-71 -48,-74c0,-3 15,-6 34,-6c29,0 47,12 113,75l78,74l-65,0l-65,0l-47,-69z" fill="#3f3f3f" id="svg_11" stroke="#4f4d4d"/>
   <path d="m4260,-9245c0,-34 1,-35 40,-35l40,0l0,-105c0,-58 -3,-105 -6,-105c-3,0 -19,9 -34,20c-15,11 -51,25 -79,32c-139,32 -249,-75 -259,-251c-3,-55 1,-95 13,-137c46,-159 211,-204 323,-88l42,44l0,-50l0,-50l100,0l100,0l0,35c0,33 -2,35 -35,35l-35,0l0,345l0,345l-105,0l-105,0l0,-35zm49,-302c25,-19 26,-24 29,-134l3,-114l-35,-34c-44,-42 -115,-54 -147,-25c-37,34 -49,70 -49,149c0,128 45,191 129,182c24,-3 55,-14 70,-24z" fill="#3f3f3f" id="svg_12" stroke="#4f4d4d"/>
   <path d="m5530,-9245c0,-33 2,-35 35,-35l35,0l0,-310l0,-310l-35,0c-33,0 -35,-2 -35,-35l0,-35l140,0l140,0l0,35c0,33 -2,35 -35,35l-35,0l0,345l0,345l-105,0l-105,0l0,-35z" fill="#3f3f3f" id="svg_13" stroke="#4f4d4d"/>
   <path d="m12300,-9245c0,-34 1,-35 40,-35l40,0l0,-105c0,-58 -3,-105 -6,-105c-3,0 -19,9 -34,20c-15,11 -51,25 -79,32c-139,32 -249,-75 -259,-251c-3,-55 1,-95 13,-137c46,-159 211,-204 323,-88l42,44l0,-50l0,-50l100,0l100,0l0,35c0,33 -2,35 -35,35l-35,0l0,345l0,345l-105,0l-105,0l0,-35zm49,-302c25,-19 26,-24 29,-134l3,-114l-35,-34c-44,-42 -115,-54 -147,-25c-37,34 -49,70 -49,149c0,128 45,191 129,182c24,-3 55,-14 70,-24z" fill="#3f3f3f" id="svg_14" stroke="#4f4d4d"/>
   <path d="m20180,-9245c0,-33 2,-35 35,-35l35,0l0,-310l0,-310l-35,0c-33,0 -35,-2 -35,-35l0,-35l140,0l140,0l0,35c0,33 -2,35 -35,35l-35,0l0,345l0,345l-105,0l-105,0l0,-35z" fill="#3f3f3f" id="svg_15" stroke="#4f4d4d"/>
   <path d="m20600,-9285l0,-75l70,0l70,0l0,75l0,75l-70,0l-70,0l0,-75z" fill="#3f3f3f" id="svg_16" stroke="#4f4d4d"/>
   <path d="m1850,-9285c0,-33 2,-35 35,-35l35,0l0,-290l0,-290l-35,0c-33,0 -35,-2 -35,-36l0,-36l228,4c209,3 231,5 275,25c140,64 204,187 195,370c-7,139 -56,226 -158,278c-69,35 -146,45 -352,45l-188,0l0,-35zm393,-47c64,-19 122,-82 142,-152c25,-86 17,-212 -17,-287c-42,-93 -108,-129 -234,-129l-74,0l0,290l0,290l71,0c40,0 90,-6 112,-12z" fill="#3f3f3f" id="svg_17" stroke="#4f4d4d"/>
   <path d="m13425,-9326c-5,-1 -36,-8 -67,-14l-58,-11l0,-45c0,-44 0,-44 -35,-44c-33,0 -35,-2 -35,-35c0,-33 2,-35 34,-35l34,0l4,-187c3,-207 9,-227 70,-259c37,-19 114,-27 153,-16c26,7 30,14 33,48l3,40l-40,-4c-30,-3 -44,1 -60,17c-20,20 -21,32 -21,191l0,170l55,0l55,0l0,35l0,35l-55,0l-54,0l-3,58c-2,33 -7,58 -13,56z" fill="#3f3f3f" id="svg_18" stroke="#4f4d4d"/>
   <path d="m2850,-9439c-127,-27 -200,-125 -200,-266c0,-114 50,-203 137,-246c69,-33 198,-34 266,0c87,42 137,132 137,246c0,113 -51,204 -136,244c-50,24 -148,34 -204,22zm133,-85c41,-38 57,-89 57,-181c0,-130 -44,-205 -120,-205c-74,0 -120,79 -120,205c0,87 19,145 61,184c32,29 88,28 122,-3z" fill="#3f3f3f" id="svg_19" stroke="#4f4d4d"/>
   <path d="m3600,-9443c-19,-6 -51,-28 -72,-49l-38,-38l0,45l0,45l-105,0l-105,0l0,-35c0,-33 2,-35 35,-35l35,0l0,-195l0,-195l-35,0c-33,0 -35,-2 -35,-35l0,-35l130,0l130,0l0,35c0,31 -3,35 -25,35l-25,0l0,150l0,150l42,30c28,21 53,30 79,30c63,0 69,-18 69,-202l0,-158l-30,0c-28,0 -30,-3 -30,-35l0,-35l135,0l135,0l0,35c0,33 -2,35 -34,35l-34,0l-4,183c-3,169 -5,185 -26,218c-36,60 -112,81 -192,56z" fill="#3f3f3f" id="svg_20" stroke="#4f4d4d"/>
   <path d="m4790,-9449c-107,-38 -167,-141 -158,-275c8,-114 54,-183 153,-227c41,-19 68,-23 145,-23c52,0 112,6 133,13c35,12 37,15 37,56l0,43l-47,-14c-73,-22 -164,-18 -203,9c-38,25 -65,66 -75,115l-7,32l168,0l167,0l-6,64c-14,144 -72,210 -194,221c-43,4 -73,0 -113,-14zm125,-57c24,-9 45,-58 45,-104l0,-40l-94,0c-103,0 -96,-5 -82,62c9,43 53,88 86,88c16,0 36,-3 45,-6z" fill="#3f3f3f" id="svg_21" stroke="#4f4d4d"/>
   <path d="m6080,-9439c-127,-27 -200,-125 -200,-266c0,-114 50,-203 137,-246c69,-33 198,-34 266,0c87,42 137,132 137,246c0,113 -51,204 -136,244c-50,24 -148,34 -204,22zm133,-85c41,-38 57,-89 57,-181c0,-130 -44,-205 -120,-205c-74,0 -120,79 -120,205c0,87 19,145 61,184c32,29 88,28 122,-3z" fill="#3f3f3f" id="svg_22" stroke="#4f4d4d"/>
   <path d="m6667,-9444c-90,-25 -141,-101 -118,-177c11,-35 81,-109 103,-109c5,0 41,-16 82,-35c79,-37 105,-69 86,-105c-15,-28 -43,-40 -90,-40c-62,0 -110,23 -110,54c0,24 -4,26 -40,26l-40,0l0,-60l0,-59l43,-12c23,-7 87,-12 142,-13c89,-1 105,2 145,24c56,32 90,81 90,132c0,78 -34,112 -165,164c-102,40 -115,50 -115,90c0,23 7,38 22,48c49,34 148,8 148,-39c0,-22 4,-25 40,-25l40,0l0,60l0,59l-37,11c-65,18 -174,21 -226,6z" fill="#3f3f3f" id="svg_23" stroke="#4f4d4d"/>
   <path d="m7695,-9448c-22,-10 -57,-38 -77,-60l-38,-42l0,55l0,55l-100,0l-100,0l0,-35c0,-33 2,-35 35,-35l35,0l0,-195l0,-195l-35,0c-33,0 -35,-2 -35,-35l0,-35l130,0l130,0l0,35c0,32 -2,35 -30,35l-31,0l3,147l3,147l43,33c53,40 103,45 126,11c13,-18 16,-54 16,-180l0,-158l-30,0c-28,0 -30,-3 -30,-35l0,-35l125,0l125,0l0,35c0,32 -2,35 -30,35l-30,0l0,138c0,95 4,143 13,155c25,34 81,67 113,67c57,0 64,-22 64,-202l0,-158l-30,0c-28,0 -30,-3 -30,-35l0,-35l130,0l130,0l0,35c0,33 -2,35 -35,35l-35,0l0,184c0,102 -4,196 -9,209c-37,97 -170,100 -262,6l-48,-49l-20,44c-22,50 -42,64 -103,71c-30,4 -55,0 -83,-13z" fill="#3f3f3f" id="svg_24" stroke="#4f4d4d"/>
   <path d="m8520,-9437c-14,-2 -46,-11 -72,-19l-48,-16l0,-54l0,-54l35,0c28,0 35,4 35,19c0,31 47,61 95,61c63,0 87,-24 93,-92l4,-55l-73,-7c-105,-9 -146,-23 -187,-60c-32,-30 -36,-39 -39,-92c-5,-77 17,-120 78,-152c58,-31 124,-25 191,17c47,30 48,30 59,10c16,-31 75,-52 126,-44c38,6 43,9 43,33c0,31 -7,43 -35,58c-18,10 -20,25 -26,175c-3,90 -11,176 -17,190c-27,67 -141,102 -262,82zm140,-348c0,-63 -1,-66 -32,-85c-18,-11 -46,-20 -61,-20c-33,0 -77,40 -77,69c0,63 47,100 128,101l42,0l0,-65z" fill="#3f3f3f" id="svg_25" stroke="#4f4d4d"/>
   <path d="m9269,-9439c-41,-13 -76,-40 -98,-74l-21,-32l0,53l0,52l-105,0l-105,0l0,-35c0,-33 2,-35 35,-35l35,0l0,-290l0,-290l-35,0c-33,0 -35,-2 -35,-35l0,-35l140,0l140,0l0,35c0,33 -2,35 -34,35l-34,0l-4,83c-2,45 -3,83 -2,85c1,1 21,-9 45,-23c93,-52 187,-42 255,29c56,59 78,131 72,244c-5,101 -35,171 -92,210c-36,25 -115,36 -157,23zm58,-116c27,-19 45,-73 47,-139c1,-77 -12,-123 -46,-161c-36,-42 -77,-46 -138,-15l-40,20l0,123c0,115 1,125 23,144c50,45 113,57 154,28z" fill="#3f3f3f" id="svg_26" stroke="#4f4d4d"/>
   <path d="m9770,-9437c-14,-2 -46,-11 -72,-19l-48,-16l0,-54l0,-54l35,0c28,0 35,4 35,19c0,31 47,61 95,61c63,0 87,-24 93,-92l4,-55l-73,-7c-105,-9 -146,-23 -187,-60c-32,-30 -36,-39 -39,-92c-5,-77 17,-120 78,-152c58,-31 124,-25 191,17c47,30 48,30 59,10c16,-31 75,-52 126,-44c38,6 43,9 43,33c0,31 -7,43 -35,58c-18,10 -20,25 -26,175c-3,90 -11,176 -17,190c-27,67 -141,102 -262,82zm140,-348c0,-63 -1,-66 -32,-85c-18,-11 -46,-20 -61,-20c-33,0 -77,40 -77,69c0,63 47,100 128,101l42,0l0,-65z" fill="#3f3f3f" id="svg_27" stroke="#4f4d4d"/>
   <path d="m10337,-9444c-90,-25 -141,-101 -118,-177c11,-35 81,-109 103,-109c5,0 41,-16 82,-35c79,-37 105,-69 86,-105c-15,-28 -43,-40 -90,-40c-62,0 -110,23 -110,54c0,24 -4,26 -40,26l-40,0l0,-60l0,-59l43,-12c23,-7 87,-12 142,-13c89,-1 105,2 145,24c56,32 90,81 90,132c0,78 -34,112 -165,164c-102,40 -115,50 -115,90c0,23 7,38 22,48c49,34 148,8 148,-39c0,-22 4,-25 40,-25l40,0l0,60l0,59l-37,11c-65,18 -174,21 -226,6z" fill="#3f3f3f" id="svg_28" stroke="#4f4d4d"/>
   <path d="m12820,-9437c-14,-2 -46,-11 -72,-19l-48,-16l0,-54l0,-54l35,0c28,0 35,4 35,19c0,31 47,61 95,61c63,0 87,-24 93,-92l4,-55l-73,-7c-105,-9 -146,-23 -187,-60c-32,-30 -36,-39 -39,-92c-5,-77 17,-120 78,-152c58,-31 124,-25 191,17c47,30 48,30 59,10c16,-31 75,-52 126,-44c38,6 43,9 43,33c0,31 -7,43 -35,58c-18,10 -20,25 -26,175c-3,90 -11,176 -17,190c-27,67 -141,102 -262,82zm140,-348c0,-63 -1,-66 -32,-85c-18,-11 -46,-20 -61,-20c-33,0 -77,40 -77,69c0,63 47,100 128,101l42,0l0,-65z" fill="#3f3f3f" id="svg_29" stroke="#4f4d4d"/>
   <path d="m13860,-9439c-127,-27 -200,-125 -200,-266c0,-114 50,-203 137,-246c69,-33 198,-34 266,0c87,42 137,132 137,246c0,113 -51,204 -136,244c-50,24 -148,34 -204,22zm133,-85c41,-38 57,-89 57,-181c0,-130 -44,-205 -120,-205c-74,0 -120,79 -120,205c0,87 19,145 61,184c32,29 88,28 122,-3z" fill="#3f3f3f" id="svg_30" stroke="#4f4d4d"/>
   <path d="m14447,-9444c-90,-25 -141,-101 -118,-177c11,-35 81,-109 103,-109c5,0 41,-16 82,-35c79,-37 105,-69 86,-105c-15,-28 -43,-40 -90,-40c-62,0 -110,23 -110,54c0,24 -4,26 -40,26l-40,0l0,-60l0,-59l43,-12c23,-7 87,-12 142,-13c89,-1 105,2 145,24c56,32 90,81 90,132c0,78 -34,112 -165,164c-102,40 -115,50 -115,90c0,23 7,38 22,48c49,34 148,8 148,-39c0,-22 4,-25 40,-25l40,0l0,60l0,59l-37,11c-65,18 -174,21 -226,6z" fill="#3f3f3f" id="svg_31" stroke="#4f4d4d"/>
   <path d="m15317,-9444c-90,-25 -141,-101 -118,-177c11,-35 81,-109 103,-109c5,0 41,-16 82,-35c79,-37 105,-69 86,-105c-15,-28 -43,-40 -90,-40c-62,0 -110,23 -110,54c0,24 -4,26 -40,26l-40,0l0,-60l0,-59l43,-12c23,-7 87,-12 142,-13c89,-1 105,2 145,24c56,32 90,81 90,132c0,78 -34,112 -165,164c-102,40 -115,50 -115,90c0,23 7,38 22,48c49,34 148,8 148,-39c0,-22 4,-25 40,-25l40,0l0,60l0,59l-37,11c-65,18 -174,21 -226,6z" fill="#3f3f3f" id="svg_32" stroke="#4f4d4d"/>
   <path d="m15910,-9439c-127,-27 -200,-125 -200,-266c0,-114 50,-203 137,-246c69,-33 198,-34 266,0c87,42 137,132 137,246c0,113 -51,204 -136,244c-50,24 -148,34 -204,22zm133,-85c41,-38 57,-89 57,-181c0,-130 -44,-205 -120,-205c-74,0 -120,79 -120,205c0,87 19,145 61,184c32,29 88,28 122,-3z" fill="#3f3f3f" id="svg_33" stroke="#4f4d4d"/>
   <path d="m16660,-9443c-19,-6 -51,-28 -72,-49l-38,-38l0,45l0,45l-105,0l-105,0l0,-35c0,-33 2,-35 35,-35l35,0l0,-195l0,-195l-35,0c-33,0 -35,-2 -35,-35l0,-35l130,0l130,0l0,35c0,31 -3,35 -25,35l-25,0l0,150l0,150l42,30c28,21 53,30 79,30c63,0 69,-18 69,-202l0,-158l-30,0c-28,0 -30,-3 -30,-35l0,-35l135,0l135,0l0,35c0,33 -2,35 -34,35l-34,0l-4,183c-3,169 -5,185 -26,218c-36,60 -112,81 -192,56z" fill="#3f3f3f" id="svg_34" stroke="#4f4d4d"/>
   <path d="m17547,-9440c-160,-41 -233,-185 -181,-361c21,-71 89,-139 160,-160c58,-17 172,-17 232,0c41,12 42,13 42,55l0,44l-37,-14c-63,-22 -154,-18 -194,9c-51,34 -69,78 -69,170c0,149 78,228 185,187c26,-10 29,-14 39,-62c6,-24 11,-28 41,-28l35,0l0,70l0,69l-37,11c-56,15 -172,21 -216,10z" fill="#3f3f3f" id="svg_35" stroke="#4f4d4d"/>
   <path d="m18110,-9439c-126,-28 -200,-126 -200,-266c0,-152 85,-252 231,-270c120,-15 227,33 279,125c22,40 25,57 25,145c0,84 -4,107 -22,141c-25,47 -73,91 -121,111c-41,17 -144,25 -192,14zm134,-86c42,-39 59,-90 59,-180c0,-128 -46,-205 -123,-205c-72,0 -120,82 -120,205c0,84 16,135 57,178c36,36 89,37 127,2z" fill="#3f3f3f" id="svg_36" stroke="#4f4d4d"/>
   <path d="m18845,-9448c-22,-10 -57,-38 -77,-60l-38,-42l0,55l0,55l-100,0l-100,0l0,-35c0,-33 2,-35 35,-35l35,0l0,-195l0,-195l-35,0c-33,0 -35,-2 -35,-35l0,-35l130,0l130,0l0,35c0,32 -2,35 -30,35l-31,0l3,147l3,147l43,33c53,40 103,45 126,11c13,-18 16,-54 16,-180l0,-158l-30,0c-28,0 -30,-3 -30,-35l0,-35l125,0l125,0l0,35c0,32 -2,35 -30,35l-30,0l0,138c0,95 4,143 13,155c25,34 81,67 113,67c57,0 64,-22 64,-202l0,-158l-30,0c-28,0 -30,-3 -30,-35l0,-35l130,0l130,0l0,35c0,33 -2,35 -35,35l-35,0l0,184c0,102 -4,196 -9,209c-37,97 -170,100 -262,6l-48,-49l-20,44c-22,50 -42,64 -103,71c-30,4 -55,0 -83,-13z" fill="#3f3f3f" id="svg_37" stroke="#4f4d4d"/>
   <path d="m19839,-9439c-41,-13 -76,-40 -98,-74l-21,-32l0,53l0,52l-105,0l-105,0l0,-35c0,-33 2,-35 35,-35l35,0l0,-290l0,-290l-35,0c-33,0 -35,-2 -35,-35l0,-35l140,0l140,0l0,35c0,33 -2,35 -34,35l-34,0l-4,83c-2,45 -3,83 -2,85c1,1 21,-9 45,-23c93,-52 187,-42 255,29c56,59 78,131 72,244c-5,101 -35,171 -92,210c-36,25 -115,36 -157,23zm58,-116c27,-19 45,-73 47,-139c1,-77 -12,-123 -46,-161c-36,-42 -77,-46 -138,-15l-40,20l0,123c0,115 1,125 23,144c50,45 113,57 154,28z" fill="#3f3f3f" id="svg_38" stroke="#4f4d4d"/>
   <path d="m21087,-9440c-160,-41 -233,-185 -181,-361c21,-71 89,-139 160,-160c58,-17 172,-17 232,0c41,12 42,13 42,55l0,44l-37,-14c-63,-22 -154,-18 -194,9c-51,34 -69,78 -69,170c0,149 78,228 185,187c26,-10 29,-14 39,-62c6,-24 11,-28 41,-28l35,0l0,70l0,69l-37,11c-56,15 -172,21 -216,10z" fill="#3f3f3f" id="svg_39" stroke="#4f4d4d"/>
   <path d="m21610,-9449c-107,-38 -167,-141 -158,-275c8,-114 54,-183 153,-227c41,-19 68,-23 145,-23c52,0 112,6 133,13c35,12 37,15 37,56l0,43l-47,-14c-73,-22 -164,-18 -203,9c-38,25 -65,66 -75,115l-7,32l168,0l167,0l-6,64c-14,144 -72,210 -194,221c-43,4 -73,0 -113,-14zm125,-57c24,-9 45,-58 45,-104l0,-40l-94,0c-103,0 -96,-5 -82,62c9,43 53,88 86,88c16,0 36,-3 45,-6z" fill="#3f3f3f" id="svg_40" stroke="#4f4d4d"/>
   <path d="m22177,-9444c-90,-25 -141,-101 -118,-177c11,-35 81,-109 103,-109c5,0 41,-16 82,-35c79,-37 105,-69 86,-105c-15,-28 -43,-40 -90,-40c-62,0 -110,23 -110,54c0,24 -4,26 -40,26l-40,0l0,-60l0,-59l43,-12c23,-7 87,-12 142,-13c89,-1 105,2 145,24c56,32 90,81 90,132c0,78 -34,112 -165,164c-102,40 -115,50 -115,90c0,23 7,38 22,48c49,34 148,8 148,-39c0,-22 4,-25 40,-25l40,0l0,60l0,59l-37,11c-65,18 -174,21 -226,6z" fill="#3f3f3f" id="svg_41" stroke="#4f4d4d"/>
   <path d="m11030,-9474c0,-28 4,-35 21,-38c18,-2 40,-44 121,-227c59,-135 95,-228 90,-235c-5,-6 -35,-45 -68,-86c-86,-107 -86,-100 -6,-100l70,0l143,325c127,286 147,325 167,325c18,0 22,5 22,35l0,35l-85,0l-85,0l0,-35c0,-32 3,-35 29,-35l29,0l-62,-140c-33,-77 -64,-140 -67,-140c-4,0 -33,62 -67,138l-60,137l29,3c26,3 29,7 29,38l0,34l-125,0l-125,0l0,-34z" fill="#3f3f3f" id="svg_42" stroke="#4f4d4d"/>
   <path d="m20530,-9475c0,-33 2,-35 35,-35l35,0l0,-195l0,-195l-35,0c-33,0 -35,-2 -35,-35l0,-35l140,0l140,0l0,35c0,33 -2,35 -35,35l-35,0l0,230l0,230l-105,0l-105,0l0,-35z" fill="#3f3f3f" id="svg_43" stroke="#4f4d4d"/>
  </g>
 </g>
</svg>